Coordinates	
version=1	
nRows=378	
nColumns=2	
inDegrees=yes	
	
"Units are S.I. units (second, meters, Newtons, ...)"	
Angles are in degrees.	
	
endheader	
time	transX
33.35	1.523442665
33.4	1.421396058
33.45	1.274197688
33.5	1.127072725
33.55	0.94223976
33.6	0.756867154
33.65	0.640111842
33.7	0.524040685
33.75	0.434633136
33.8	0.346456325
33.85	0.238477233
33.9	0.131403212
33.95	0.054965791
34	-0.020078965
34.05	-0.025648963
34.1	-0.02867421
34.15	-0.035503115
34.2	-0.039912917
34.25	-0.046716985
34.3	-0.051284169
34.35	-0.027710597
34.4	-0.001559221
34.45	0.067950619
34.5	0.14063586
34.55	0.237765087
34.6	0.338313258
34.65	0.437757587
34.7	0.540388803
34.75	0.64685311
34.8	0.756338032
34.85	0.868945573
34.9	0.984409953
34.95	1.101967087
35	1.222207609
35.05	1.346988965
35.1	1.474329128
35.15	1.599347256
35.2	1.726693283
35.25	1.864082218
35.3	2.003780604
35.35	2.183467152
35.4	2.365954665
35.45	2.516339718
35.5	2.668802419
35.55	2.807288511
35.6	2.947401886
35.65	3.117758571
35.7	3.290084995
35.75	3.491338055
35.8	3.694899154
35.85	3.88923317
35.9	4.085540512
35.95	4.247833736
36	4.411329869
36.05	4.56618027
36.1	4.721918359
36.15	4.949521728
36.2	5.179093008
36.25	5.423992522
36.3	5.670994667
36.35	5.862200022
36.4	6.054371483
36.45	6.234322398
36.5	6.414837698
36.55	6.634909787
36.6	6.856090407
36.65	7.040724519
36.7	7.225752875
36.75	7.402602178
36.8	7.579571338
36.85	7.761732618
36.9	7.944016657
36.95	8.124381976
37	8.30476705
37.05	8.485772009
37.1	8.666733474
37.15	8.847469164
37.2	9.028089657
37.25	9.208229793
37.3	9.388181245
37.35	9.569882858
37.4	9.751362927
37.45	9.925272645
37.5	10.09877559
37.55	10.29378423
37.6	10.48868815
37.65	10.70691343
37.7	10.92537217
37.75	11.10157259
37.8	11.27722116
37.85	11.44507018
37.9	11.6121438
37.95	11.86077941
38	12.10996436
38.05	12.32861015
38.1	12.54724994
38.15	12.71545132
38.2	12.88267055
38.25	13.05441881
38.3	13.22518409
38.35	13.39994231
38.4	13.57377237
38.45	13.8685813
38.5	14.16446005
38.55	14.37314016
38.6	14.58138047
38.65	14.72921633
38.7	14.87542849
38.75	15.04108812
38.8	15.20540514
38.85	15.39482433
38.9	15.58334693
38.95	15.78836987
39	15.99276582
39.05	16.1550977
39.1	16.3160607
39.15	16.50542273
39.2	16.69384201
39.25	16.90125125
39.3	17.10803327
39.35	17.29170308
39.4	17.47431919
39.45	17.61765609
39.5	17.75922886
39.55	17.88469115
39.6	18.00810749
39.65	18.16157725
39.7	18.31354179
39.75	18.42999165
39.8	18.54439289
39.85	18.75555925
39.9	18.96630811
39.95	19.22788943
40	19.4899342
40.05	19.66213086
40.1	19.83319257
40.15	19.94535412
40.2	20.05526729
40.25	20.18554229
40.3	20.31391118
40.35	20.48250374
40.4	20.64992977
40.45	20.79898141
40.5	20.94658907
40.55	21.05011129
40.6	21.15143772
40.65	21.2242565
40.7	21.29442326
40.75	21.3743932
40.8	21.45195427
40.85	21.56779512
40.9	21.6819722
40.95	21.71178293
41	21.73860177
41.05	21.81115173
41.1	21.88152199
41.15	21.96809397
41.2	22.05289405
41.25	22.10750131
41.3	22.15990254
41.35	22.25416691
41.4	22.34697675
41.45	22.43287788
41.5	22.51728562
41.55	22.59841146
41.6	22.67801201
41.65	22.76338265
41.7	22.84735553
41.75	22.90487608
41.8	22.96059046
41.85	22.99011709
41.9	23.01743249
41.95	23.04587604
42	23.07219691
42.05	23.09457398
42.1	23.11486045
42.15	23.17989176
42.2	23.24367027
42.25	23.24586525
42.3	23.24586046
42.35	23.21968108
42.4	23.19090328
42.45	23.13545593
42.5	23.07708432
42.55	22.95650524
42.6	22.83211657
42.65	22.75041523
42.7	22.66580843
42.75	22.53504017
42.8	22.40084279
42.85	22.29632678
42.9	22.18906811
42.95	22.06033241
43	21.92872504
43.05	21.80379585
43.1	21.67629159
43.15	21.60306058
43.2	21.52835827
43.25	21.36776077
43.3	21.20442504
43.35	21.04069792
43.4	20.87433909
43.45	20.70500526
43.5	20.53320259
43.55	20.37822926
43.6	20.22126928
43.65	20.10048371
43.7	19.97850373
43.75	19.8890601
43.8	19.79911249
43.85	19.74164222
43.9	19.68429624
43.95	19.62651593
44	19.56888678
44.05	19.5085966
44.1	19.44840704
44.15	19.39512623
44.2	19.34205807
44.25	19.27046655
44.3	19.19877876
44.35	19.09618741
44.4	18.9929825
44.45	18.89428729
44.5	18.79508408
44.55	18.69492495
44.6	18.59430807
44.65	18.49334764
44.7	18.3919816
44.75	18.28879768
44.8	18.18523439
44.85	18.08615393
44.9	17.98682374
44.95	17.87667072
45	17.76614107
45.05	17.61972896
45.1	17.47239075
45.15	17.32755744
45.2	17.18190947
45.25	17.02672116
45.3	16.87066862
45.35	16.75784023
45.4	16.64497101
45.45	16.5012681
45.5	16.35710751
45.55	16.17488688
45.6	15.99162172
45.65	15.88480575
45.7	15.77831304
45.75	15.59129316
45.8	15.40336837
45.85	15.20135886
45.9	14.99824611
45.95	14.81787965
46	14.63692644
46.05	14.40017328
46.1	14.16204383
46.15	13.88886382
46.2	13.61384339
46.25	13.41930242
46.3	13.22445363
46.35	13.02475356
46.4	12.82486537
46.45	12.58532962
46.5	12.34503655
46.55	12.103682
46.6	11.86165606
46.65	11.59489264
46.7	11.3271923
46.75	11.07901341
46.8	10.83036948
46.85	10.64516156
46.9	10.46070882
46.95	10.16921293
47	9.87680018
47.05	9.652844523
47.1	9.429170857
47.15	9.207459046
47.2	8.986228973
47.25	8.721246176
47.3	8.456088926
47.35	8.231260505
47.4	8.007008735
47.45	7.845093297
47.5	7.684910536
47.55	7.494524091
47.6	7.305410717
47.65	7.112743267
47.7	6.921263516
47.75	6.650407577
47.8	6.379430545
47.85	6.144311099
47.9	5.909708464
47.95	5.709601306
48	5.510711332
48.05	5.206087724
48.1	4.900983646
48.15	4.624356363
48.2	4.347771352
48.25	4.103174383
48.3	3.859319824
48.35	3.659095471
48.4	3.460453856
48.45	3.255510341
48.5	3.052099695
48.55	2.81483897
48.6	2.578547404
48.65	2.358242115
48.7	2.13919036
48.75	1.957350181
48.8	1.777437856
48.85	1.570799217
48.9	1.365664095
48.95	1.104258627
49	0.843400744
49.05	0.634270744
49.1	0.426582046
49.15	0.2399421
49.2	0.055178492
49.25	-0.201560739
49.3	-0.457613356
49.35	-0.664229216
49.4	-0.869330961
49.45	-1.030219525
49.5	-1.188779378
49.55	-1.382307573
49.6	-1.574089823
49.65	-1.748821674
49.7	-1.921567784
49.75	-2.082369084
49.8	-2.240989144
49.85	-2.429748992
49.9	-2.616857572
49.95	-2.759129708
50	-2.899035607
50.05	-3.035049651
50.1	-3.168638652
50.15	-3.326502572
50.2	-3.482407907
50.25	-3.686987509
50.3	-3.890476063
50.35	-4.079073013
50.4	-4.266340599
50.45	-4.37860797
50.5	-4.488250226
50.55	-4.60968859
50.6	-4.728695092
50.65	-4.927589723
50.7	-5.12546979
50.75	-5.259020251
50.8	-5.390528263
50.85	-5.510532429
50.9	-5.628264543
50.95	-5.786464972
51	-5.943114817
51.05	-6.074789744
51.1	-6.204545308
51.15	-6.30115812
51.2	-6.395301699
51.25	-6.529760224
51.3	-6.662464197
51.35	-6.761333937
51.4	-6.857955318
51.45	-6.953707155
51.5	-7.047222582
51.55	-7.196446481
51.6	-7.344429589
51.65	-7.492501779
51.7	-7.639383924
51.75	-7.709589026
51.8	-7.777304889
51.85	-7.844582619
51.9	-7.909365916
51.95	-8.005286802
52	-8.099328965
52.05	-8.216328311
52.1	-8.331914912
52.15	-8.394750856
52.2	-8.455329345
